<svg xmlns="http://www.w3.org/2000/svg" viewBox="0 0 3168 1344" width="1584" height="672">
<defs>
<style>
@keyframes band0 {
  0.00% { transform: translate(0px,0); }
  1.85% { transform: translate(0px,0); }
  2.00% { transform: translate(115px,0); }
  3.78% { transform: translate(115px,0); }
  3.85% { transform: translate(0px,0); }
  3.93% { transform: translate(0px,0); }
  4.00% { transform: translate(-270px,0); }
  5.44% { transform: translate(-270px,0); }
  5.59% { transform: translate(0px,0); }
  6.05% { transform: translate(0px,0); }
  6.20% { transform: translate(-270px,0); }
  7.24% { transform: translate(-270px,0); }
  7.39% { transform: translate(0px,0); }
  8.35% { transform: translate(0px,0); }
  8.50% { transform: translate(-70px,0); }
  9.61% { transform: translate(-70px,0); }
  9.76% { transform: translate(0px,0); }
  10.85% { transform: translate(0px,0); }
  11.00% { transform: translate(-270px,0); }
  13.14% { transform: translate(-270px,0); }
  13.29% { transform: translate(0px,0); }
  39.85% { transform: translate(0px,0); }
  40.00% { transform: translate(-270px,0); }
  41.45% { transform: translate(0px,0); }
  41.60% { transform: translate(-115px,0); }
  41.69% { transform: translate(-270px,0); }
  41.84% { transform: translate(0px,0); }
  43.27% { transform: translate(-115px,0); }
  43.42% { transform: translate(0px,0); }
  66.85% { transform: translate(0px,0); }
  67.00% { transform: translate(-215px,0); }
  68.65% { transform: translate(-215px,0); }
  68.65% { transform: translate(0px,0); }
  68.80% { transform: translate(0px,0); }
  68.80% { transform: translate(-270px,0); }
  69.92% { transform: translate(-270px,0); }
  70.07% { transform: translate(0px,0); }
  70.25% { transform: translate(0px,0); }
  70.40% { transform: translate(115px,0); }
  71.52% { transform: translate(115px,0); }
  71.67% { transform: translate(0px,0); }
  87.85% { transform: translate(0px,0); }
  88.00% { transform: translate(-270px,0); }
  89.74% { transform: translate(-270px,0); }
  89.89% { transform: translate(0px,0); }
  100.00% { transform: translate(0px,0); }
}
@keyframes band1 {
  0.00% { transform: translate(0px,0); }
  1.85% { transform: translate(0px,0); }
  2.00% { transform: translate(270px,0); }
  3.85% { transform: translate(0px,0); }
  3.93% { transform: translate(270px,0); }
  4.00% { transform: translate(215px,0); }
  4.08% { transform: translate(0px,0); }
  5.36% { transform: translate(215px,0); }
  5.51% { transform: translate(0px,0); }
  8.35% { transform: translate(0px,0); }
  8.50% { transform: translate(-115px,0); }
  10.19% { transform: translate(-115px,0); }
  10.34% { transform: translate(0px,0); }
  10.85% { transform: translate(0px,0); }
  11.00% { transform: translate(160px,0); }
  12.35% { transform: translate(160px,0); }
  12.50% { transform: translate(0px,0); }
  41.45% { transform: translate(0px,0); }
  41.60% { transform: translate(-215px,0); }
  43.51% { transform: translate(-215px,0); }
  43.66% { transform: translate(0px,0); }
  66.85% { transform: translate(0px,0); }
  67.00% { transform: translate(215px,0); }
  68.05% { transform: translate(215px,0); }
  68.20% { transform: translate(0px,0); }
  68.65% { transform: translate(0px,0); }
  68.80% { transform: translate(270px,0); }
  70.21% { transform: translate(270px,0); }
  70.25% { transform: translate(0px,0); }
  70.36% { transform: translate(0px,0); }
  70.40% { transform: translate(215px,0); }
  71.48% { transform: translate(215px,0); }
  71.63% { transform: translate(0px,0); }
  87.85% { transform: translate(0px,0); }
  88.00% { transform: translate(160px,0); }
  89.84% { transform: translate(160px,0); }
  89.99% { transform: translate(0px,0); }
  100.00% { transform: translate(0px,0); }
}
@keyframes band2 {
  0.00% { transform: translate(0px,0); }
  1.85% { transform: translate(0px,0); }
  2.00% { transform: translate(330px,0); }
  3.78% { transform: translate(330px,0); }
  3.93% { transform: translate(0px,0); }
  8.35% { transform: translate(0px,0); }
  8.50% { transform: translate(215px,0); }
  9.53% { transform: translate(215px,0); }
  9.68% { transform: translate(0px,0); }
  10.85% { transform: translate(0px,0); }
  11.00% { transform: translate(-115px,0); }
  12.59% { transform: translate(-115px,0); }
  12.74% { transform: translate(0px,0); }
  39.85% { transform: translate(0px,0); }
  40.00% { transform: translate(-160px,0); }
  41.45% { transform: translate(0px,0); }
  41.60% { transform: translate(-215px,0); }
  41.89% { transform: translate(-160px,0); }
  42.04% { transform: translate(0px,0); }
  42.80% { transform: translate(-215px,0); }
  42.95% { transform: translate(0px,0); }
  66.85% { transform: translate(0px,0); }
  67.00% { transform: translate(-160px,0); }
  68.98% { transform: translate(-160px,0); }
  69.13% { transform: translate(0px,0); }
  70.25% { transform: translate(0px,0); }
  70.40% { transform: translate(215px,0); }
  72.22% { transform: translate(215px,0); }
  72.37% { transform: translate(0px,0); }
  87.85% { transform: translate(0px,0); }
  88.00% { transform: translate(-115px,0); }
  89.10% { transform: translate(-115px,0); }
  89.25% { transform: translate(0px,0); }
  100.00% { transform: translate(0px,0); }
}
@keyframes band3 {
  0.00% { transform: translate(0px,0); }
  1.85% { transform: translate(0px,0); }
  2.00% { transform: translate(-330px,0); }
  3.01% { transform: translate(-330px,0); }
  3.16% { transform: translate(0px,0); }
  6.05% { transform: translate(0px,0); }
  6.20% { transform: translate(-160px,0); }
  7.37% { transform: translate(-160px,0); }
  7.52% { transform: translate(0px,0); }
  8.35% { transform: translate(0px,0); }
  8.50% { transform: translate(270px,0); }
  10.64% { transform: translate(270px,0); }
  10.79% { transform: translate(0px,0); }
  10.85% { transform: translate(0px,0); }
  11.00% { transform: translate(-270px,0); }
  12.55% { transform: translate(-270px,0); }
  12.70% { transform: translate(0px,0); }
  66.85% { transform: translate(0px,0); }
  67.00% { transform: translate(270px,0); }
  68.48% { transform: translate(270px,0); }
  68.63% { transform: translate(0px,0); }
  68.65% { transform: translate(0px,0); }
  68.80% { transform: translate(215px,0); }
  69.87% { transform: translate(215px,0); }
  70.02% { transform: translate(0px,0); }
  70.25% { transform: translate(0px,0); }
  70.40% { transform: translate(115px,0); }
  71.59% { transform: translate(115px,0); }
  71.74% { transform: translate(0px,0); }
  87.85% { transform: translate(0px,0); }
  88.00% { transform: translate(-70px,0); }
  89.00% { transform: translate(-70px,0); }
  89.15% { transform: translate(0px,0); }
  100.00% { transform: translate(0px,0); }
}
@keyframes band4 {
  0.00% { transform: translate(0px,0); }
  1.85% { transform: translate(0px,0); }
  2.00% { transform: translate(70px,0); }
  3.74% { transform: translate(70px,0); }
  3.85% { transform: translate(0px,0); }
  3.89% { transform: translate(0px,0); }
  4.00% { transform: translate(115px,0); }
  5.18% { transform: translate(115px,0); }
  5.33% { transform: translate(0px,0); }
  6.05% { transform: translate(0px,0); }
  6.20% { transform: translate(160px,0); }
  7.77% { transform: translate(160px,0); }
  7.92% { transform: translate(0px,0); }
  8.35% { transform: translate(0px,0); }
  8.50% { transform: translate(215px,0); }
  10.08% { transform: translate(215px,0); }
  10.23% { transform: translate(0px,0); }
  10.85% { transform: translate(0px,0); }
  11.00% { transform: translate(-115px,0); }
  12.90% { transform: translate(-115px,0); }
  13.05% { transform: translate(0px,0); }
  41.45% { transform: translate(0px,0); }
  41.60% { transform: translate(-330px,0); }
  43.22% { transform: translate(-330px,0); }
  43.37% { transform: translate(0px,0); }
  66.85% { transform: translate(0px,0); }
  67.00% { transform: translate(270px,0); }
  68.18% { transform: translate(270px,0); }
  68.33% { transform: translate(0px,0); }
  68.65% { transform: translate(0px,0); }
  68.80% { transform: translate(70px,0); }
  70.97% { transform: translate(70px,0); }
  71.12% { transform: translate(0px,0); }
  87.85% { transform: translate(0px,0); }
  88.00% { transform: translate(160px,0); }
  90.09% { transform: translate(160px,0); }
  90.24% { transform: translate(0px,0); }
  100.00% { transform: translate(0px,0); }
}
@keyframes band5 {
  0.00% { transform: translate(0px,0); }
  1.85% { transform: translate(0px,0); }
  2.00% { transform: translate(115px,0); }
  3.76% { transform: translate(115px,0); }
  3.85% { transform: translate(0px,0); }
  3.91% { transform: translate(0px,0); }
  4.00% { transform: translate(-115px,0); }
  5.98% { transform: translate(-115px,0); }
  6.13% { transform: translate(0px,0); }
  8.35% { transform: translate(0px,0); }
  8.50% { transform: translate(270px,0); }
  9.93% { transform: translate(270px,0); }
  10.08% { transform: translate(0px,0); }
  10.85% { transform: translate(0px,0); }
  11.00% { transform: translate(70px,0); }
  12.57% { transform: translate(70px,0); }
  12.72% { transform: translate(0px,0); }
  39.85% { transform: translate(0px,0); }
  40.00% { transform: translate(270px,0); }
  41.54% { transform: translate(270px,0); }
  41.69% { transform: translate(0px,0); }
  70.25% { transform: translate(0px,0); }
  70.40% { transform: translate(-115px,0); }
  71.67% { transform: translate(-115px,0); }
  71.82% { transform: translate(0px,0); }
  87.85% { transform: translate(0px,0); }
  88.00% { transform: translate(115px,0); }
  89.75% { transform: translate(115px,0); }
  89.90% { transform: translate(0px,0); }
  100.00% { transform: translate(0px,0); }
}
@keyframes band6 {
  0.00% { transform: translate(0px,0); }
  6.05% { transform: translate(0px,0); }
  6.20% { transform: translate(330px,0); }
  8.16% { transform: translate(330px,0); }
  8.31% { transform: translate(0px,0); }
  8.35% { transform: translate(0px,0); }
  8.50% { transform: translate(-330px,0); }
  10.59% { transform: translate(-330px,0); }
  10.74% { transform: translate(0px,0); }
  41.45% { transform: translate(0px,0); }
  41.60% { transform: translate(115px,0); }
  43.55% { transform: translate(115px,0); }
  43.70% { transform: translate(0px,0); }
  66.85% { transform: translate(0px,0); }
  67.00% { transform: translate(330px,0); }
  68.56% { transform: translate(330px,0); }
  68.71% { transform: translate(0px,0); }
  70.25% { transform: translate(0px,0); }
  70.40% { transform: translate(-115px,0); }
  72.59% { transform: translate(-115px,0); }
  72.74% { transform: translate(0px,0); }
  87.85% { transform: translate(0px,0); }
  88.00% { transform: translate(270px,0); }
  89.97% { transform: translate(270px,0); }
  90.12% { transform: translate(0px,0); }
  100.00% { transform: translate(0px,0); }
}
@keyframes band7 {
  0.00% { transform: translate(0px,0); }
  1.85% { transform: translate(0px,0); }
  2.00% { transform: translate(270px,0); }
  3.79% { transform: translate(270px,0); }
  3.85% { transform: translate(0px,0); }
  3.94% { transform: translate(0px,0); }
  4.00% { transform: translate(-270px,0); }
  5.03% { transform: translate(-270px,0); }
  5.18% { transform: translate(0px,0); }
  10.85% { transform: translate(0px,0); }
  11.00% { transform: translate(-330px,0); }
  12.52% { transform: translate(-330px,0); }
  12.67% { transform: translate(0px,0); }
  66.85% { transform: translate(0px,0); }
  67.00% { transform: translate(-160px,0); }
  68.35% { transform: translate(-160px,0); }
  68.50% { transform: translate(0px,0); }
  68.65% { transform: translate(0px,0); }
  68.80% { transform: translate(270px,0); }
  70.11% { transform: translate(270px,0); }
  70.25% { transform: translate(0px,0); }
  70.26% { transform: translate(0px,0); }
  70.40% { transform: translate(-115px,0); }
  72.49% { transform: translate(-115px,0); }
  72.64% { transform: translate(0px,0); }
  87.85% { transform: translate(0px,0); }
  88.00% { transform: translate(215px,0); }
  89.99% { transform: translate(215px,0); }
  90.14% { transform: translate(0px,0); }
  100.00% { transform: translate(0px,0); }
}
@keyframes band8 {
  0.00% { transform: translate(0px,0); }
  3.85% { transform: translate(0px,0); }
  4.00% { transform: translate(-115px,0); }
  6.05% { transform: translate(-115px,0); }
  6.20% { transform: translate(0px,0); }
  8.35% { transform: translate(0px,0); }
  8.50% { transform: translate(-115px,0); }
  9.67% { transform: translate(-115px,0); }
  9.82% { transform: translate(0px,0); }
  10.85% { transform: translate(0px,0); }
  11.00% { transform: translate(-70px,0); }
  12.39% { transform: translate(-70px,0); }
  12.54% { transform: translate(0px,0); }
  39.85% { transform: translate(0px,0); }
  40.00% { transform: translate(270px,0); }
  41.45% { transform: translate(0px,0); }
  41.60% { transform: translate(-270px,0); }
  41.94% { transform: translate(270px,0); }
  42.09% { transform: translate(0px,0); }
  42.90% { transform: translate(-270px,0); }
  43.05% { transform: translate(0px,0); }
  66.85% { transform: translate(0px,0); }
  67.00% { transform: translate(70px,0); }
  68.67% { transform: translate(70px,0); }
  68.82% { transform: translate(0px,0); }
  87.85% { transform: translate(0px,0); }
  88.00% { transform: translate(-270px,0); }
  89.83% { transform: translate(-270px,0); }
  89.98% { transform: translate(0px,0); }
  100.00% { transform: translate(0px,0); }
}
@keyframes band9 {
  0.00% { transform: translate(0px,0); }
  1.85% { transform: translate(0px,0); }
  2.00% { transform: translate(270px,0); }
  3.61% { transform: translate(270px,0); }
  3.76% { transform: translate(0px,0); }
  3.85% { transform: translate(0px,0); }
  4.00% { transform: translate(270px,0); }
  6.11% { transform: translate(270px,0); }
  6.26% { transform: translate(0px,0); }
  8.35% { transform: translate(0px,0); }
  8.50% { transform: translate(-215px,0); }
  10.00% { transform: translate(-215px,0); }
  10.15% { transform: translate(0px,0); }
  10.85% { transform: translate(0px,0); }
  11.00% { transform: translate(-160px,0); }
  12.81% { transform: translate(-160px,0); }
  12.96% { transform: translate(0px,0); }
  39.85% { transform: translate(0px,0); }
  40.00% { transform: translate(115px,0); }
  41.94% { transform: translate(115px,0); }
  42.09% { transform: translate(0px,0); }
  66.85% { transform: translate(0px,0); }
  67.00% { transform: translate(330px,0); }
  68.17% { transform: translate(330px,0); }
  68.32% { transform: translate(0px,0); }
  87.85% { transform: translate(0px,0); }
  88.00% { transform: translate(70px,0); }
  90.06% { transform: translate(70px,0); }
  90.21% { transform: translate(0px,0); }
  100.00% { transform: translate(0px,0); }
}
@keyframes band10 {
  0.00% { transform: translate(0px,0); }
  1.85% { transform: translate(0px,0); }
  2.00% { transform: translate(-330px,0); }
  3.19% { transform: translate(-330px,0); }
  3.34% { transform: translate(0px,0); }
  3.85% { transform: translate(0px,0); }
  4.00% { transform: translate(270px,0); }
  5.41% { transform: translate(270px,0); }
  5.56% { transform: translate(0px,0); }
  6.05% { transform: translate(0px,0); }
  6.20% { transform: translate(-160px,0); }
  8.07% { transform: translate(-160px,0); }
  8.22% { transform: translate(0px,0); }
  8.35% { transform: translate(0px,0); }
  8.50% { transform: translate(270px,0); }
  10.03% { transform: translate(270px,0); }
  10.18% { transform: translate(0px,0); }
  10.85% { transform: translate(0px,0); }
  11.00% { transform: translate(160px,0); }
  12.61% { transform: translate(160px,0); }
  12.76% { transform: translate(0px,0); }
  39.85% { transform: translate(0px,0); }
  40.00% { transform: translate(-115px,0); }
  41.10% { transform: translate(-115px,0); }
  41.25% { transform: translate(0px,0); }
  41.45% { transform: translate(0px,0); }
  41.60% { transform: translate(115px,0); }
  43.51% { transform: translate(115px,0); }
  43.66% { transform: translate(0px,0); }
  70.25% { transform: translate(0px,0); }
  70.40% { transform: translate(160px,0); }
  71.58% { transform: translate(160px,0); }
  71.73% { transform: translate(0px,0); }
  100.00% { transform: translate(0px,0); }
}
@keyframes band11 {
  0.00% { transform: translate(0px,0); }
  1.85% { transform: translate(0px,0); }
  2.00% { transform: translate(330px,0); }
  3.11% { transform: translate(330px,0); }
  3.26% { transform: translate(0px,0); }
  3.85% { transform: translate(0px,0); }
  4.00% { transform: translate(-330px,0); }
  5.51% { transform: translate(-330px,0); }
  5.66% { transform: translate(0px,0); }
  6.05% { transform: translate(0px,0); }
  6.20% { transform: translate(-70px,0); }
  8.16% { transform: translate(-70px,0); }
  8.31% { transform: translate(0px,0); }
  8.35% { transform: translate(0px,0); }
  8.50% { transform: translate(-115px,0); }
  9.82% { transform: translate(-115px,0); }
  9.97% { transform: translate(0px,0); }
  10.85% { transform: translate(0px,0); }
  11.00% { transform: translate(70px,0); }
  13.19% { transform: translate(70px,0); }
  13.34% { transform: translate(0px,0); }
  39.85% { transform: translate(0px,0); }
  40.00% { transform: translate(-160px,0); }
  41.05% { transform: translate(-160px,0); }
  41.20% { transform: translate(0px,0); }
  41.45% { transform: translate(0px,0); }
  41.60% { transform: translate(-70px,0); }
  42.91% { transform: translate(-70px,0); }
  43.06% { transform: translate(0px,0); }
  66.85% { transform: translate(0px,0); }
  67.00% { transform: translate(160px,0); }
  68.64% { transform: translate(160px,0); }
  68.65% { transform: translate(0px,0); }
  68.79% { transform: translate(0px,0); }
  68.80% { transform: translate(-215px,0); }
  70.12% { transform: translate(-215px,0); }
  70.27% { transform: translate(0px,0); }
  100.00% { transform: translate(0px,0); }
}
@keyframes band12 {
  0.00% { transform: translate(0px,0); }
  1.85% { transform: translate(0px,0); }
  2.00% { transform: translate(-70px,0); }
  3.62% { transform: translate(-70px,0); }
  3.77% { transform: translate(0px,0); }
  3.85% { transform: translate(0px,0); }
  4.00% { transform: translate(-215px,0); }
  5.79% { transform: translate(-215px,0); }
  5.94% { transform: translate(0px,0); }
  6.05% { transform: translate(0px,0); }
  6.20% { transform: translate(330px,0); }
  7.86% { transform: translate(330px,0); }
  8.01% { transform: translate(0px,0); }
  39.85% { transform: translate(0px,0); }
  40.00% { transform: translate(-115px,0); }
  41.41% { transform: translate(-115px,0); }
  41.56% { transform: translate(0px,0); }
  66.85% { transform: translate(0px,0); }
  67.00% { transform: translate(-330px,0); }
  68.49% { transform: translate(-330px,0); }
  68.64% { transform: translate(0px,0); }
  68.65% { transform: translate(0px,0); }
  68.80% { transform: translate(-70px,0); }
  69.82% { transform: translate(-70px,0); }
  69.97% { transform: translate(0px,0); }
  70.25% { transform: translate(0px,0); }
  70.40% { transform: translate(160px,0); }
  71.60% { transform: translate(160px,0); }
  71.75% { transform: translate(0px,0); }
  87.85% { transform: translate(0px,0); }
  88.00% { transform: translate(215px,0); }
  89.72% { transform: translate(215px,0); }
  89.87% { transform: translate(0px,0); }
  100.00% { transform: translate(0px,0); }
}
@keyframes band13 {
  0.00% { transform: translate(0px,0); }
  1.85% { transform: translate(0px,0); }
  2.00% { transform: translate(70px,0); }
  3.22% { transform: translate(70px,0); }
  3.37% { transform: translate(0px,0); }
  3.85% { transform: translate(0px,0); }
  4.00% { transform: translate(70px,0); }
  5.44% { transform: translate(70px,0); }
  5.59% { transform: translate(0px,0); }
  6.05% { transform: translate(0px,0); }
  6.20% { transform: translate(270px,0); }
  7.49% { transform: translate(270px,0); }
  7.64% { transform: translate(0px,0); }
  10.85% { transform: translate(0px,0); }
  11.00% { transform: translate(-160px,0); }
  12.00% { transform: translate(-160px,0); }
  12.15% { transform: translate(0px,0); }
  39.85% { transform: translate(0px,0); }
  40.00% { transform: translate(215px,0); }
  41.45% { transform: translate(0px,0); }
  41.60% { transform: translate(-270px,0); }
  41.60% { transform: translate(215px,0); }
  41.75% { transform: translate(0px,0); }
  42.71% { transform: translate(-270px,0); }
  42.86% { transform: translate(0px,0); }
  68.65% { transform: translate(0px,0); }
  68.80% { transform: translate(-270px,0); }
  70.25% { transform: translate(0px,0); }
  70.27% { transform: translate(-270px,0); }
  70.40% { transform: translate(-330px,0); }
  70.42% { transform: translate(0px,0); }
  71.50% { transform: translate(-330px,0); }
  71.65% { transform: translate(0px,0); }
  100.00% { transform: translate(0px,0); }
}
@keyframes chromaR {
  0.00% { transform: translate(0px,0); }
  1.85% { transform: translate(0px,0); }
  2.00% { transform: translate(36px,0); }
  3.66% { transform: translate(36px,0); }
  3.81% { transform: translate(0px,0); }
  3.85% { transform: translate(0px,0); }
  4.00% { transform: translate(66px,0); }
  5.39% { transform: translate(66px,0); }
  5.54% { transform: translate(0px,0); }
  6.05% { transform: translate(0px,0); }
  6.20% { transform: translate(46px,0); }
  7.92% { transform: translate(46px,0); }
  8.07% { transform: translate(0px,0); }
  8.35% { transform: translate(0px,0); }
  8.50% { transform: translate(56px,0); }
  9.65% { transform: translate(56px,0); }
  9.80% { transform: translate(0px,0); }
  10.85% { transform: translate(0px,0); }
  11.00% { transform: translate(66px,0); }
  12.64% { transform: translate(66px,0); }
  12.79% { transform: translate(0px,0); }
  39.85% { transform: translate(0px,0); }
  40.00% { transform: translate(26px,0); }
  41.45% { transform: translate(0px,0); }
  41.60% { transform: translate(66px,0); }
  41.82% { transform: translate(26px,0); }
  41.97% { transform: translate(0px,0); }
  43.23% { transform: translate(66px,0); }
  43.38% { transform: translate(0px,0); }
  66.85% { transform: translate(0px,0); }
  67.00% { transform: translate(66px,0); }
  68.14% { transform: translate(66px,0); }
  68.29% { transform: translate(0px,0); }
  68.65% { transform: translate(0px,0); }
  68.80% { transform: translate(66px,0); }
  70.25% { transform: translate(0px,0); }
  70.40% { transform: translate(66px,0); }
  70.55% { transform: translate(66px,0); }
  70.70% { transform: translate(0px,0); }
  72.23% { transform: translate(66px,0); }
  72.38% { transform: translate(0px,0); }
  87.85% { transform: translate(0px,0); }
  88.00% { transform: translate(26px,0); }
  89.83% { transform: translate(26px,0); }
  89.98% { transform: translate(0px,0); }
  100.00% { transform: translate(0px,0); }
}
@keyframes chromaC {
  0.00% { transform: translate(0px,0); }
  1.85% { transform: translate(0px,0); }
  2.00% { transform: translate(-66px,0); }
  3.80% { transform: translate(-66px,0); }
  3.85% { transform: translate(0px,0); }
  3.95% { transform: translate(0px,0); }
  4.00% { transform: translate(-36px,0); }
  5.09% { transform: translate(-36px,0); }
  5.24% { transform: translate(0px,0); }
  6.05% { transform: translate(0px,0); }
  6.20% { transform: translate(-26px,0); }
  7.33% { transform: translate(-26px,0); }
  7.48% { transform: translate(0px,0); }
  8.35% { transform: translate(0px,0); }
  8.50% { transform: translate(-46px,0); }
  10.46% { transform: translate(-46px,0); }
  10.61% { transform: translate(0px,0); }
  10.85% { transform: translate(0px,0); }
  11.00% { transform: translate(-56px,0); }
  12.84% { transform: translate(-56px,0); }
  12.99% { transform: translate(0px,0); }
  39.85% { transform: translate(0px,0); }
  40.00% { transform: translate(-66px,0); }
  41.05% { transform: translate(-66px,0); }
  41.20% { transform: translate(0px,0); }
  41.45% { transform: translate(0px,0); }
  41.60% { transform: translate(-26px,0); }
  43.23% { transform: translate(-26px,0); }
  43.38% { transform: translate(0px,0); }
  66.85% { transform: translate(0px,0); }
  67.00% { transform: translate(-36px,0); }
  68.49% { transform: translate(-36px,0); }
  68.64% { transform: translate(0px,0); }
  68.65% { transform: translate(0px,0); }
  68.80% { transform: translate(-26px,0); }
  70.25% { transform: translate(0px,0); }
  70.26% { transform: translate(-26px,0); }
  70.40% { transform: translate(-26px,0); }
  70.41% { transform: translate(0px,0); }
  72.15% { transform: translate(-26px,0); }
  72.30% { transform: translate(0px,0); }
  87.85% { transform: translate(0px,0); }
  88.00% { transform: translate(-66px,0); }
  89.90% { transform: translate(-66px,0); }
  90.05% { transform: translate(0px,0); }
  100.00% { transform: translate(0px,0); }
}
@keyframes jolt {
  0.00% { transform: translate(0,0px); }
  3.88% { transform: translate(0,0px); }
  4.00% { transform: translate(0,-18px); }
  5.00% { transform: translate(0,-18px); }
  5.12% { transform: translate(0,0px); }
  8.38% { transform: translate(0,0px); }
  8.50% { transform: translate(0,-18px); }
  9.50% { transform: translate(0,-18px); }
  9.62% { transform: translate(0,0px); }
  39.88% { transform: translate(0,0px); }
  40.00% { transform: translate(0,18px); }
  41.00% { transform: translate(0,18px); }
  41.12% { transform: translate(0,0px); }
  68.68% { transform: translate(0,0px); }
  68.80% { transform: translate(0,12px); }
  69.80% { transform: translate(0,12px); }
  69.92% { transform: translate(0,0px); }
  100.00% { transform: translate(0,0px); }
}
@keyframes flash {
  0.00% { opacity: 0; }
  6.10% { opacity: 0; }
  6.20% { opacity: 0.128; }
  6.80% { opacity: 0; }
  8.40% { opacity: 0; }
  8.50% { opacity: 0.118; }
  9.10% { opacity: 0; }
  10.90% { opacity: 0; }
  11.00% { opacity: 0.136; }
  11.60% { opacity: 0; }
  39.90% { opacity: 0; }
  40.00% { opacity: 0.142; }
  40.60% { opacity: 0; }
  41.50% { opacity: 0; }
  41.60% { opacity: 0.064; }
  42.20% { opacity: 0; }
  68.70% { opacity: 0; }
  68.80% { opacity: 0.114; }
  69.40% { opacity: 0; }
  70.30% { opacity: 0; }
  70.40% { opacity: 0.119; }
  71.00% { opacity: 0; }
  100.00% { opacity: 0; }
}
</style>
<g id="wm" transform="translate(0.000000,1344.000000) scale(0.100000,-0.100000)"
fill="#B01927" stroke="none">
<path d="M4611 8897 c-10 -26 -15 -3683 -5 -3744 l6 -42 172 -188 c94 -103
215 -233 268 -288 l97 -100 16 16 16 16 -1 921 -1 921 21 11 20 11 546 -3 545
-3 27 -31 c15 -18 67 -81 117 -140 49 -60 133 -158 186 -219 53 -60 125 -144
160 -186 119 -142 284 -332 413 -478 71 -80 154 -177 185 -216 30 -38 107
-128 171 -199 63 -71 133 -150 155 -176 161 -193 237 -279 251 -284 21 -8 632
-8 673 0 l31 6 0 23 0 23 -132 153 c-72 85 -179 209 -237 276 -58 66 -133 154
-165 193 -33 40 -101 118 -151 174 -50 55 -134 151 -186 211 -52 61 -189 219
-304 350 -116 132 -260 298 -320 370 -61 71 -137 159 -171 195 -77 83 -175
196 -246 285 -31 39 -91 107 -135 153 l-78 82 -360 1 c-585 1 -996 7 -1003 14
-4 4 -8 301 -10 661 l-3 654 11 20 10 19 1063 -2 1062 -3 60 -18 c78 -23 173
-67 227 -104 146 -101 254 -282 279 -472 l12 -85 -12 -77 c-19 -123 -61 -235
-122 -325 -55 -79 -40 -83 338 -83 l264 0 24 54 c13 30 36 94 51 143 l26 88 5
156 5 157 -22 103 c-72 344 -223 590 -477 780 -168 125 -288 179 -503 225
l-115 24 -1373 0 -1372 0 -9 -23z"/>
<path d="M8037 8913 c-16 -16 -3 -34 66 -86 103 -79 270 -255 351 -369 l68
-98 607 -1 c333 -1 652 -2 708 -3 l102 -1 247 250 c254 257 280 287 269 305
l-6 10 -1203 0 c-661 0 -1206 -3 -1209 -7z"/>
<path d="M6706 8111 c-30 -59 -62 -185 -76 -303 l-10 -87 10 -113 c31 -324
142 -578 349 -791 215 -223 456 -344 751 -378 l95 -11 745 -2 745 -2 55 -16
c140 -40 197 -67 295 -139 108 -79 192 -206 231 -350 l17 -64 0 -105 1 -105
-23 -85 c-12 -47 -38 -114 -58 -150 l-36 -65 -86 -85 -86 -85 -85 -42 c-47
-22 -103 -47 -125 -54 l-40 -12 -405 -4 -405 -4 -14 -14 -14 -14 56 -74 c32
-40 91 -111 133 -158 42 -46 117 -132 167 -192 l89 -107 26 -7 c39 -9 366 5
462 21 218 37 409 129 595 287 44 37 87 76 95 86 8 10 35 43 60 73 63 76 91
121 148 241 77 161 105 279 117 489 l7 125 -11 90 c-16 133 -54 254 -126 400
-157 319 -381 513 -721 624 -49 16 -134 37 -189 47 l-100 18 -775 1 -775 1
-70 20 c-280 83 -458 277 -510 558 l-17 89 11 77 c17 114 77 267 137 347 30
40 30 59 2 67 -13 3 -157 6 -320 6 l-298 0 -24 -49z"/>
<path d="M20870 8009 c-208 -16 -401 -81 -562 -190 -142 -96 -232 -223 -279
-394 l-14 -50 0 -125 0 -125 14 -50 c34 -120 114 -231 225 -310 143 -102 317
-168 656 -251 353 -86 431 -113 520 -181 l49 -38 26 -49 25 -50 0 -66 0 -66
-26 -52 c-58 -116 -187 -182 -394 -202 l-102 -10 -117 10 c-65 5 -154 18 -197
29 -174 41 -381 133 -490 216 -26 20 -54 35 -63 33 -15 -3 -116 -186 -160
-289 l-22 -54 44 -40 c104 -94 418 -234 599 -265 397 -70 718 -47 965 70 56
26 123 63 150 81 199 137 303 334 303 574 l0 83 -24 91 c-27 106 -69 180 -150
268 l-59 63 -85 47 c-120 65 -256 116 -402 151 -69 17 -194 46 -278 66 -233
56 -396 121 -454 183 -86 91 -91 240 -9 334 78 92 190 140 371 159 l115 12
105 -12 c172 -18 357 -73 510 -150 33 -17 68 -30 79 -30 l20 0 34 73 c19 39
54 116 78 171 l43 99 -25 19 c-76 62 -317 157 -474 187 -199 38 -343 46 -545
30z"/>
<path d="M25968 8010 c-117 -11 -182 -25 -323 -72 -234 -77 -401 -180 -544
-338 -103 -113 -158 -186 -205 -272 -39 -71 -97 -235 -122 -348 l-17 -75 -1
-200 -1 -200 18 -73 c21 -86 82 -254 122 -332 113 -223 334 -437 575 -558
l105 -52 120 -31 c311 -78 577 -78 845 1 132 39 286 112 370 176 93 71 210
184 210 204 0 15 -250 262 -287 284 l-15 8 -36 -31 c-21 -17 -76 -62 -124
-100 l-87 -69 -78 -32 c-43 -18 -118 -41 -168 -51 l-90 -19 -106 0 c-304 0
-567 126 -719 346 -100 145 -143 259 -161 433 l-11 110 11 99 c13 114 44 219
91 313 47 92 80 137 164 222 l74 75 84 45 c110 60 209 94 326 113 l97 16 100
-6 c123 -7 235 -35 340 -85 75 -35 199 -126 254 -185 14 -14 31 -26 38 -26 17
0 303 278 303 294 0 32 -156 167 -275 238 -115 69 -201 101 -375 142 -180 43
-315 52 -502 36z"/>
<path d="M12031 7956 l-12 -15 3 -1235 3 -1235 13 -13 13 -13 221 3 221 2 14
11 13 11 0 359 c0 197 3 360 8 362 13 8 636 19 654 12 10 -4 39 -39 65 -79 25
-39 74 -109 107 -156 34 -46 127 -181 207 -300 l146 -215 49 -6 c27 -3 141 -3
254 0 l205 6 3 21 3 22 -73 106 c-40 59 -133 191 -207 294 -247 345 -281 394
-275 403 3 5 33 23 67 41 289 145 447 413 447 756 0 166 -47 340 -123 452
-114 170 -224 254 -444 343 -172 70 -261 77 -974 77 l-597 0 -11 -14z m1219
-396 c94 -15 209 -57 263 -96 59 -43 109 -111 142 -192 l25 -62 0 -110 0 -111
-21 -61 c-51 -153 -163 -246 -354 -295 l-60 -15 -348 -5 -347 -5 -15 12 -15
12 0 463 0 463 13 5 c23 10 652 7 717 -3z"/>
<path d="M14716 7954 c-9 -24 -8 -2486 1 -2495 5 -5 437 -9 962 -10 l953 -1
12 12 11 11 -2 177 -3 177 -17 13 -17 12 -702 0 -703 0 -6 10 c-7 11 -11 667
-4 674 2 2 278 7 613 10 335 4 613 9 617 12 13 8 11 341 -1 365 l-11 19 -605
0 -605 0 -7 18 c-9 22 -8 599 1 608 4 4 313 8 687 9 l681 2 12 12 12 12 0 167
c0 92 -3 175 -7 185 l-7 17 -930 0 -929 0 -6 -16z"/>
<path d="M17157 7963 c-10 -10 -8 -2486 2 -2502 l8 -13 639 1 c358 1 675 6
721 12 310 37 604 176 793 375 188 197 284 385 327 639 l18 100 -2 150 -1 150
-15 75 c-57 283 -164 484 -356 668 -180 172 -494 310 -776 342 -103 11 -1347
14 -1358 3z m1258 -403 c163 -19 277 -60 406 -147 157 -107 269 -263 323 -454
39 -133 36 -374 -6 -514 -42 -144 -137 -293 -242 -381 -91 -76 -272 -156 -426
-190 l-75 -17 -363 -4 -362 -5 -15 12 -15 12 0 840 0 839 23 9 c31 12 642 12
752 0z"/>
<path d="M22487 7963 c-11 -10 -8 -2501 2 -2507 5 -3 438 -6 962 -6 l954 -1
12 17 13 18 0 173 0 172 -19 11 -20 10 -706 0 -706 0 -7 18 c-9 21 -10 658 -1
666 3 4 278 8 611 9 332 2 610 7 616 11 l12 7 0 178 0 177 -12 12 -12 12 -603
0 -603 0 -10 26 c-11 27 -14 562 -4 588 l6 16 673 0 674 0 26 10 25 10 -2 187
-3 188 -936 3 c-514 1 -939 -1 -942 -5z"/>
</g>
<clipPath id="b0"><rect x="-400" y="-1.00" width="3968" height="98.00"/></clipPath><clipPath id="b1"><rect x="-400" y="95.00" width="3968" height="98.00"/></clipPath><clipPath id="b2"><rect x="-400" y="191.00" width="3968" height="98.00"/></clipPath><clipPath id="b3"><rect x="-400" y="287.00" width="3968" height="98.00"/></clipPath><clipPath id="b4"><rect x="-400" y="383.00" width="3968" height="98.00"/></clipPath><clipPath id="b5"><rect x="-400" y="479.00" width="3968" height="98.00"/></clipPath><clipPath id="b6"><rect x="-400" y="575.00" width="3968" height="98.00"/></clipPath><clipPath id="b7"><rect x="-400" y="671.00" width="3968" height="98.00"/></clipPath><clipPath id="b8"><rect x="-400" y="767.00" width="3968" height="98.00"/></clipPath><clipPath id="b9"><rect x="-400" y="863.00" width="3968" height="98.00"/></clipPath><clipPath id="b10"><rect x="-400" y="959.00" width="3968" height="98.00"/></clipPath><clipPath id="b11"><rect x="-400" y="1055.00" width="3968" height="98.00"/></clipPath><clipPath id="b12"><rect x="-400" y="1151.00" width="3968" height="98.00"/></clipPath><clipPath id="b13"><rect x="-400" y="1247.00" width="3968" height="98.00"/></clipPath>
<clipPath id="wmClip"><use href="#wm"/></clipPath>
<pattern id="scan" width="6" height="9" patternUnits="userSpaceOnUse">
  <rect width="6" height="3" fill="#000" opacity="0.16"/>
</pattern>
</defs>


<g style="animation:jolt 3.4s linear infinite">
  <g style="animation:chromaC 3.4s linear infinite"><use href="#wm" fill="#16e8ff"/></g>
  <g style="animation:chromaR 3.4s linear infinite"><use href="#wm" fill="#ff2740"/></g>
  <g style="animation:band0 3.4s linear infinite"><use href="#wm" fill="#B01927" clip-path="url(#b0)"/></g>
  <g style="animation:band1 3.4s linear infinite"><use href="#wm" fill="#B01927" clip-path="url(#b1)"/></g>
  <g style="animation:band2 3.4s linear infinite"><use href="#wm" fill="#B01927" clip-path="url(#b2)"/></g>
  <g style="animation:band3 3.4s linear infinite"><use href="#wm" fill="#B01927" clip-path="url(#b3)"/></g>
  <g style="animation:band4 3.4s linear infinite"><use href="#wm" fill="#B01927" clip-path="url(#b4)"/></g>
  <g style="animation:band5 3.4s linear infinite"><use href="#wm" fill="#B01927" clip-path="url(#b5)"/></g>
  <g style="animation:band6 3.4s linear infinite"><use href="#wm" fill="#B01927" clip-path="url(#b6)"/></g>
  <g style="animation:band7 3.4s linear infinite"><use href="#wm" fill="#B01927" clip-path="url(#b7)"/></g>
  <g style="animation:band8 3.4s linear infinite"><use href="#wm" fill="#B01927" clip-path="url(#b8)"/></g>
  <g style="animation:band9 3.4s linear infinite"><use href="#wm" fill="#B01927" clip-path="url(#b9)"/></g>
  <g style="animation:band10 3.4s linear infinite"><use href="#wm" fill="#B01927" clip-path="url(#b10)"/></g>
  <g style="animation:band11 3.4s linear infinite"><use href="#wm" fill="#B01927" clip-path="url(#b11)"/></g>
  <g style="animation:band12 3.4s linear infinite"><use href="#wm" fill="#B01927" clip-path="url(#b12)"/></g>
  <g style="animation:band13 3.4s linear infinite"><use href="#wm" fill="#B01927" clip-path="url(#b13)"/></g>
</g>

<rect width="3168" height="1344" fill="url(#scan)" clip-path="url(#wmClip)"/>
<rect width="3168" height="1344" fill="#ff5566" clip-path="url(#wmClip)" style="animation:flash 3.4s linear infinite" opacity="0"/>
</svg>