<svg xmlns="http://www.w3.org/2000/svg" viewBox="0 0 2236 2236" width="1024" height="1024">
<defs>
<style>
@keyframes band0 {
  0.00% { transform: translate(0px,0); }
  1.85% { transform: translate(0px,0); }
  2.00% { transform: translate(70px,0); }
  3.78% { transform: translate(70px,0); }
  3.85% { transform: translate(0px,0); }
  3.93% { transform: translate(0px,0); }
  4.00% { transform: translate(-165px,0); }
  5.44% { transform: translate(-165px,0); }
  5.59% { transform: translate(0px,0); }
  6.05% { transform: translate(0px,0); }
  6.20% { transform: translate(-165px,0); }
  7.24% { transform: translate(-165px,0); }
  7.39% { transform: translate(0px,0); }
  8.35% { transform: translate(0px,0); }
  8.50% { transform: translate(-40px,0); }
  9.61% { transform: translate(-40px,0); }
  9.76% { transform: translate(0px,0); }
  10.85% { transform: translate(0px,0); }
  11.00% { transform: translate(-165px,0); }
  13.14% { transform: translate(-165px,0); }
  13.29% { transform: translate(0px,0); }
  39.85% { transform: translate(0px,0); }
  40.00% { transform: translate(-165px,0); }
  41.45% { transform: translate(0px,0); }
  41.60% { transform: translate(-70px,0); }
  41.69% { transform: translate(-165px,0); }
  41.84% { transform: translate(0px,0); }
  43.27% { transform: translate(-70px,0); }
  43.42% { transform: translate(0px,0); }
  66.85% { transform: translate(0px,0); }
  67.00% { transform: translate(-130px,0); }
  68.65% { transform: translate(-130px,0); }
  68.65% { transform: translate(0px,0); }
  68.80% { transform: translate(0px,0); }
  68.80% { transform: translate(-165px,0); }
  69.92% { transform: translate(-165px,0); }
  70.07% { transform: translate(0px,0); }
  70.25% { transform: translate(0px,0); }
  70.40% { transform: translate(70px,0); }
  71.52% { transform: translate(70px,0); }
  71.67% { transform: translate(0px,0); }
  100.00% { transform: translate(0px,0); }
}
@keyframes band1 {
  0.00% { transform: translate(0px,0); }
  1.85% { transform: translate(0px,0); }
  2.00% { transform: translate(-165px,0); }
  3.60% { transform: translate(-165px,0); }
  3.75% { transform: translate(0px,0); }
  3.85% { transform: translate(0px,0); }
  4.00% { transform: translate(95px,0); }
  5.70% { transform: translate(95px,0); }
  5.85% { transform: translate(0px,0); }
  6.05% { transform: translate(0px,0); }
  6.20% { transform: translate(-95px,0); }
  8.15% { transform: translate(-95px,0); }
  8.30% { transform: translate(0px,0); }
  8.35% { transform: translate(0px,0); }
  8.50% { transform: translate(-70px,0); }
  10.19% { transform: translate(-70px,0); }
  10.34% { transform: translate(0px,0); }
  10.85% { transform: translate(0px,0); }
  11.00% { transform: translate(95px,0); }
  12.35% { transform: translate(95px,0); }
  12.50% { transform: translate(0px,0); }
  41.45% { transform: translate(0px,0); }
  41.60% { transform: translate(-130px,0); }
  43.51% { transform: translate(-130px,0); }
  43.66% { transform: translate(0px,0); }
  66.85% { transform: translate(0px,0); }
  67.00% { transform: translate(130px,0); }
  68.05% { transform: translate(130px,0); }
  68.20% { transform: translate(0px,0); }
  68.65% { transform: translate(0px,0); }
  68.80% { transform: translate(165px,0); }
  70.21% { transform: translate(165px,0); }
  70.25% { transform: translate(0px,0); }
  70.36% { transform: translate(0px,0); }
  70.40% { transform: translate(130px,0); }
  71.48% { transform: translate(130px,0); }
  71.63% { transform: translate(0px,0); }
  87.85% { transform: translate(0px,0); }
  88.00% { transform: translate(95px,0); }
  89.84% { transform: translate(95px,0); }
  89.99% { transform: translate(0px,0); }
  100.00% { transform: translate(0px,0); }
}
@keyframes band2 {
  0.00% { transform: translate(0px,0); }
  1.85% { transform: translate(0px,0); }
  2.00% { transform: translate(200px,0); }
  3.78% { transform: translate(200px,0); }
  3.93% { transform: translate(0px,0); }
  8.35% { transform: translate(0px,0); }
  8.50% { transform: translate(130px,0); }
  9.53% { transform: translate(130px,0); }
  9.68% { transform: translate(0px,0); }
  10.85% { transform: translate(0px,0); }
  11.00% { transform: translate(-70px,0); }
  12.59% { transform: translate(-70px,0); }
  12.74% { transform: translate(0px,0); }
  39.85% { transform: translate(0px,0); }
  40.00% { transform: translate(-95px,0); }
  41.45% { transform: translate(0px,0); }
  41.60% { transform: translate(-130px,0); }
  41.89% { transform: translate(-95px,0); }
  42.04% { transform: translate(0px,0); }
  42.80% { transform: translate(-130px,0); }
  42.95% { transform: translate(0px,0); }
  66.85% { transform: translate(0px,0); }
  67.00% { transform: translate(-95px,0); }
  68.98% { transform: translate(-95px,0); }
  69.13% { transform: translate(0px,0); }
  70.25% { transform: translate(0px,0); }
  70.40% { transform: translate(130px,0); }
  72.22% { transform: translate(130px,0); }
  72.37% { transform: translate(0px,0); }
  87.85% { transform: translate(0px,0); }
  88.00% { transform: translate(-70px,0); }
  89.10% { transform: translate(-70px,0); }
  89.25% { transform: translate(0px,0); }
  100.00% { transform: translate(0px,0); }
}
@keyframes band3 {
  0.00% { transform: translate(0px,0); }
  1.85% { transform: translate(0px,0); }
  2.00% { transform: translate(-200px,0); }
  3.01% { transform: translate(-200px,0); }
  3.16% { transform: translate(0px,0); }
  6.05% { transform: translate(0px,0); }
  6.20% { transform: translate(-95px,0); }
  7.37% { transform: translate(-95px,0); }
  7.52% { transform: translate(0px,0); }
  8.35% { transform: translate(0px,0); }
  8.50% { transform: translate(165px,0); }
  10.64% { transform: translate(165px,0); }
  10.79% { transform: translate(0px,0); }
  10.85% { transform: translate(0px,0); }
  11.00% { transform: translate(-165px,0); }
  12.55% { transform: translate(-165px,0); }
  12.70% { transform: translate(0px,0); }
  66.85% { transform: translate(0px,0); }
  67.00% { transform: translate(165px,0); }
  68.48% { transform: translate(165px,0); }
  68.63% { transform: translate(0px,0); }
  68.65% { transform: translate(0px,0); }
  68.80% { transform: translate(130px,0); }
  69.87% { transform: translate(130px,0); }
  70.02% { transform: translate(0px,0); }
  70.25% { transform: translate(0px,0); }
  70.40% { transform: translate(70px,0); }
  71.59% { transform: translate(70px,0); }
  71.74% { transform: translate(0px,0); }
  87.85% { transform: translate(0px,0); }
  88.00% { transform: translate(-40px,0); }
  89.00% { transform: translate(-40px,0); }
  89.15% { transform: translate(0px,0); }
  100.00% { transform: translate(0px,0); }
}
@keyframes band4 {
  0.00% { transform: translate(0px,0); }
  1.85% { transform: translate(0px,0); }
  2.00% { transform: translate(40px,0); }
  3.74% { transform: translate(40px,0); }
  3.85% { transform: translate(0px,0); }
  3.89% { transform: translate(0px,0); }
  4.00% { transform: translate(70px,0); }
  5.18% { transform: translate(70px,0); }
  5.33% { transform: translate(0px,0); }
  6.05% { transform: translate(0px,0); }
  6.20% { transform: translate(95px,0); }
  7.77% { transform: translate(95px,0); }
  7.92% { transform: translate(0px,0); }
  8.35% { transform: translate(0px,0); }
  8.50% { transform: translate(130px,0); }
  10.08% { transform: translate(130px,0); }
  10.23% { transform: translate(0px,0); }
  10.85% { transform: translate(0px,0); }
  11.00% { transform: translate(-70px,0); }
  12.90% { transform: translate(-70px,0); }
  13.05% { transform: translate(0px,0); }
  41.45% { transform: translate(0px,0); }
  41.60% { transform: translate(-200px,0); }
  43.22% { transform: translate(-200px,0); }
  43.37% { transform: translate(0px,0); }
  66.85% { transform: translate(0px,0); }
  67.00% { transform: translate(165px,0); }
  68.18% { transform: translate(165px,0); }
  68.33% { transform: translate(0px,0); }
  68.65% { transform: translate(0px,0); }
  68.80% { transform: translate(40px,0); }
  70.97% { transform: translate(40px,0); }
  71.12% { transform: translate(0px,0); }
  87.85% { transform: translate(0px,0); }
  88.00% { transform: translate(95px,0); }
  90.09% { transform: translate(95px,0); }
  90.24% { transform: translate(0px,0); }
  100.00% { transform: translate(0px,0); }
}
@keyframes band5 {
  0.00% { transform: translate(0px,0); }
  1.85% { transform: translate(0px,0); }
  2.00% { transform: translate(70px,0); }
  3.76% { transform: translate(70px,0); }
  3.85% { transform: translate(0px,0); }
  3.91% { transform: translate(0px,0); }
  4.00% { transform: translate(-70px,0); }
  5.98% { transform: translate(-70px,0); }
  6.13% { transform: translate(0px,0); }
  8.35% { transform: translate(0px,0); }
  8.50% { transform: translate(165px,0); }
  9.93% { transform: translate(165px,0); }
  10.08% { transform: translate(0px,0); }
  10.85% { transform: translate(0px,0); }
  11.00% { transform: translate(40px,0); }
  12.57% { transform: translate(40px,0); }
  12.72% { transform: translate(0px,0); }
  39.85% { transform: translate(0px,0); }
  40.00% { transform: translate(165px,0); }
  41.54% { transform: translate(165px,0); }
  41.69% { transform: translate(0px,0); }
  70.25% { transform: translate(0px,0); }
  70.40% { transform: translate(-70px,0); }
  71.67% { transform: translate(-70px,0); }
  71.82% { transform: translate(0px,0); }
  87.85% { transform: translate(0px,0); }
  88.00% { transform: translate(70px,0); }
  89.75% { transform: translate(70px,0); }
  89.90% { transform: translate(0px,0); }
  100.00% { transform: translate(0px,0); }
}
@keyframes band6 {
  0.00% { transform: translate(0px,0); }
  6.05% { transform: translate(0px,0); }
  6.20% { transform: translate(200px,0); }
  8.16% { transform: translate(200px,0); }
  8.31% { transform: translate(0px,0); }
  8.35% { transform: translate(0px,0); }
  8.50% { transform: translate(-200px,0); }
  10.59% { transform: translate(-200px,0); }
  10.74% { transform: translate(0px,0); }
  41.45% { transform: translate(0px,0); }
  41.60% { transform: translate(70px,0); }
  43.55% { transform: translate(70px,0); }
  43.70% { transform: translate(0px,0); }
  66.85% { transform: translate(0px,0); }
  67.00% { transform: translate(200px,0); }
  68.56% { transform: translate(200px,0); }
  68.71% { transform: translate(0px,0); }
  70.25% { transform: translate(0px,0); }
  70.40% { transform: translate(-70px,0); }
  72.59% { transform: translate(-70px,0); }
  72.74% { transform: translate(0px,0); }
  87.85% { transform: translate(0px,0); }
  88.00% { transform: translate(165px,0); }
  89.97% { transform: translate(165px,0); }
  90.12% { transform: translate(0px,0); }
  100.00% { transform: translate(0px,0); }
}
@keyframes chromaR {
  0.00% { transform: translate(0px,0); }
  1.85% { transform: translate(0px,0); }
  2.00% { transform: translate(22px,0); }
  3.61% { transform: translate(22px,0); }
  3.76% { transform: translate(0px,0); }
  3.85% { transform: translate(0px,0); }
  4.00% { transform: translate(40px,0); }
  5.98% { transform: translate(40px,0); }
  6.05% { transform: translate(0px,0); }
  6.13% { transform: translate(0px,0); }
  6.20% { transform: translate(28px,0); }
  7.36% { transform: translate(28px,0); }
  7.51% { transform: translate(0px,0); }
  8.35% { transform: translate(0px,0); }
  8.50% { transform: translate(40px,0); }
  9.63% { transform: translate(40px,0); }
  9.78% { transform: translate(0px,0); }
  10.85% { transform: translate(0px,0); }
  11.00% { transform: translate(16px,0); }
  12.80% { transform: translate(16px,0); }
  12.95% { transform: translate(0px,0); }
  39.85% { transform: translate(0px,0); }
  40.00% { transform: translate(16px,0); }
  41.45% { transform: translate(0px,0); }
  41.53% { transform: translate(16px,0); }
  41.60% { transform: translate(22px,0); }
  41.68% { transform: translate(0px,0); }
  43.03% { transform: translate(22px,0); }
  43.18% { transform: translate(0px,0); }
  66.85% { transform: translate(0px,0); }
  67.00% { transform: translate(22px,0); }
  68.65% { transform: translate(0px,0); }
  68.80% { transform: translate(22px,0); }
  68.83% { transform: translate(22px,0); }
  68.98% { transform: translate(0px,0); }
  69.83% { transform: translate(22px,0); }
  69.98% { transform: translate(0px,0); }
  70.25% { transform: translate(0px,0); }
  70.40% { transform: translate(22px,0); }
  71.69% { transform: translate(22px,0); }
  71.84% { transform: translate(0px,0); }
  87.85% { transform: translate(0px,0); }
  88.00% { transform: translate(22px,0); }
  89.76% { transform: translate(22px,0); }
  89.91% { transform: translate(0px,0); }
  100.00% { transform: translate(0px,0); }
}
@keyframes chromaC {
  0.00% { transform: translate(0px,0); }
  1.85% { transform: translate(0px,0); }
  2.00% { transform: translate(-28px,0); }
  3.26% { transform: translate(-28px,0); }
  3.41% { transform: translate(0px,0); }
  3.85% { transform: translate(0px,0); }
  4.00% { transform: translate(-34px,0); }
  5.83% { transform: translate(-34px,0); }
  5.98% { transform: translate(0px,0); }
  6.05% { transform: translate(0px,0); }
  6.20% { transform: translate(-16px,0); }
  8.11% { transform: translate(-16px,0); }
  8.26% { transform: translate(0px,0); }
  8.35% { transform: translate(0px,0); }
  8.50% { transform: translate(-28px,0); }
  10.40% { transform: translate(-28px,0); }
  10.55% { transform: translate(0px,0); }
  10.85% { transform: translate(0px,0); }
  11.00% { transform: translate(-40px,0); }
  12.82% { transform: translate(-40px,0); }
  12.97% { transform: translate(0px,0); }
  39.85% { transform: translate(0px,0); }
  40.00% { transform: translate(-40px,0); }
  41.42% { transform: translate(-40px,0); }
  41.45% { transform: translate(0px,0); }
  41.57% { transform: translate(0px,0); }
  41.60% { transform: translate(-40px,0); }
  42.73% { transform: translate(-40px,0); }
  42.88% { transform: translate(0px,0); }
  66.85% { transform: translate(0px,0); }
  67.00% { transform: translate(-22px,0); }
  68.52% { transform: translate(-22px,0); }
  68.65% { transform: translate(0px,0); }
  68.67% { transform: translate(0px,0); }
  68.80% { transform: translate(-16px,0); }
  70.25% { transform: translate(0px,0); }
  70.40% { transform: translate(-22px,0); }
  70.67% { transform: translate(-16px,0); }
  70.82% { transform: translate(0px,0); }
  72.01% { transform: translate(-22px,0); }
  72.16% { transform: translate(0px,0); }
  87.85% { transform: translate(0px,0); }
  88.00% { transform: translate(-22px,0); }
  89.17% { transform: translate(-22px,0); }
  89.32% { transform: translate(0px,0); }
  100.00% { transform: translate(0px,0); }
}
@keyframes jolt {
  0.00% { transform: translate(0,0px); }
  3.88% { transform: translate(0,0px); }
  4.00% { transform: translate(0,16px); }
  5.00% { transform: translate(0,16px); }
  5.12% { transform: translate(0,0px); }
  8.38% { transform: translate(0,0px); }
  8.50% { transform: translate(0,-16px); }
  9.50% { transform: translate(0,-16px); }
  9.62% { transform: translate(0,0px); }
  39.88% { transform: translate(0,0px); }
  40.00% { transform: translate(0,-16px); }
  41.00% { transform: translate(0,-16px); }
  41.12% { transform: translate(0,0px); }
  68.68% { transform: translate(0,0px); }
  68.80% { transform: translate(0,10px); }
  69.80% { transform: translate(0,10px); }
  69.92% { transform: translate(0,0px); }
  100.00% { transform: translate(0,0px); }
}
@keyframes flash {
  0.00% { opacity: 0; }
  3.90% { opacity: 0; }
  4.00% { opacity: 0.108; }
  4.60% { opacity: 0; }
  10.90% { opacity: 0; }
  11.00% { opacity: 0.079; }
  11.60% { opacity: 0; }
  39.90% { opacity: 0; }
  40.00% { opacity: 0.07; }
  40.60% { opacity: 0; }
  41.50% { opacity: 0; }
  41.60% { opacity: 0.063; }
  42.20% { opacity: 0; }
  68.70% { opacity: 0; }
  68.80% { opacity: 0.093; }
  69.40% { opacity: 0; }
  100.00% { opacity: 0; }
}
</style>
<g id="rs" transform="translate(0.000000,2236.000000) scale(0.100000,-0.100000)"
fill="#B01927" stroke="none">
<path d="M5896 15187 l-19 -14 1 -3234 c1 -1779 2 -3329 2 -3446 l0 -211 65
-81 c36 -44 71 -84 78 -88 6 -4 53 -55 102 -112 50 -58 159 -181 243 -275 85
-94 179 -200 210 -235 32 -36 75 -84 97 -107 77 -82 119 -129 152 -171 35 -44
62 -54 82 -30 l11 14 2 1719 3 1719 1009 3 1010 2 29 -27 c16 -16 48 -51 71
-79 22 -28 82 -97 131 -154 50 -57 108 -124 130 -150 22 -27 85 -101 140 -165
55 -64 116 -135 135 -158 19 -23 103 -121 185 -216 160 -185 204 -238 289
-341 29 -36 92 -108 140 -160 48 -52 104 -115 124 -140 20 -25 54 -65 77 -90
22 -25 56 -66 75 -90 19 -24 44 -53 55 -64 11 -11 29 -32 40 -47 11 -15 61
-72 110 -127 50 -54 124 -141 165 -192 41 -52 84 -103 95 -114 20 -20 101
-114 224 -257 123 -143 157 -182 245 -282 48 -55 96 -108 105 -119 65 -81 139
-166 216 -251 50 -55 113 -128 141 -161 28 -34 65 -73 81 -88 l29 -28 649 0
c386 -1 652 3 658 9 5 5 7 16 5 24 -2 12 -265 327 -348 418 -14 15 -54 62 -90
104 -36 42 -99 116 -140 163 -42 48 -92 107 -112 132 -19 25 -51 61 -69 80
-19 19 -46 51 -61 70 -15 19 -44 54 -65 77 -21 24 -63 73 -93 109 -30 36 -98
114 -150 174 -52 59 -126 145 -165 191 -38 45 -86 101 -105 123 -20 23 -67 79
-106 126 -39 47 -89 104 -110 126 -21 23 -69 77 -106 120 -37 44 -98 115 -136
159 -37 44 -79 93 -93 109 -13 16 -47 54 -75 85 -80 89 -356 409 -384 445 -36
48 -108 132 -160 186 -25 26 -72 80 -105 120 -33 39 -78 93 -101 118 -22 26
-80 94 -129 152 -48 58 -142 165 -209 239 -67 73 -128 143 -136 155 -7 11 -37
46 -65 77 -27 30 -57 64 -65 75 -9 10 -60 71 -114 134 -54 63 -126 148 -160
188 -33 41 -96 114 -140 163 -43 49 -79 90 -80 91 0 2 -561 5 -1246 8 l-1245
5 -3 1214 -2 1214 11 13 11 14 1885 0 1885 0 106 -16 c332 -49 656 -261 817
-534 21 -36 46 -77 56 -91 19 -29 48 -104 80 -209 11 -36 26 -87 35 -115 24
-80 36 -222 29 -335 -14 -234 -112 -491 -262 -684 -29 -37 -53 -72 -53 -76 0
-5 6 -15 14 -23 l15 -14 118 -7 c66 -4 323 -7 573 -7 l453 0 12 13 c31 35 96
239 155 489 26 110 38 312 30 510 l-7 156 -23 104 c-65 301 -137 503 -258 724
-55 100 -200 303 -297 414 -167 192 -492 437 -693 522 -26 11 -63 28 -82 38
-19 10 -53 24 -75 31 -22 7 -44 16 -50 20 -5 5 -28 12 -50 16 -22 4 -78 20
-125 36 -47 16 -148 41 -225 56 l-140 27 -2475 3 -2475 2 -19 -13z"/>
<path d="M12031 15191 c-14 -4 -26 -11 -28 -18 -5 -13 47 -58 101 -85 42 -22
52 -29 205 -154 230 -188 431 -429 591 -709 19 -33 43 -60 57 -66 14 -5 525
-9 1276 -9 l1252 1 22 12 c24 14 362 347 741 729 l252 255 0 20 0 21 -31 6
c-43 8 -4408 6 -4438 -3z"/>
<path d="M9714 13786 c-12 -9 -25 -28 -29 -43 -3 -15 -14 -45 -24 -68 -40 -91
-75 -226 -113 -430 l-21 -120 -1 -190 0 -190 22 -130 c13 -71 29 -150 36 -175
8 -25 22 -79 31 -120 22 -94 91 -278 142 -375 14 -27 39 -77 55 -110 17 -33
44 -80 62 -105 17 -25 44 -66 59 -93 15 -26 36 -55 46 -65 10 -9 36 -42 59
-74 52 -71 303 -322 357 -357 22 -14 56 -39 76 -56 20 -16 49 -38 65 -47 30
-18 41 -25 109 -69 22 -15 58 -35 80 -46 22 -11 72 -36 110 -56 172 -88 350
-141 690 -204 l90 -16 1390 -4 1390 -3 125 -27 125 -26 85 -38 c211 -95 315
-172 449 -334 86 -103 130 -167 164 -235 94 -192 136 -375 137 -597 l0 -123
-26 -122 c-14 -68 -31 -132 -38 -143 -7 -11 -23 -49 -36 -85 -42 -117 -123
-241 -239 -362 -173 -183 -398 -300 -670 -351 -33 -6 -351 -12 -779 -16 l-723
-6 -9 -15 c-5 -8 -6 -19 -2 -25 21 -35 54 -78 102 -130 30 -34 75 -85 100
-115 25 -30 92 -108 150 -173 58 -65 116 -133 130 -151 26 -35 87 -107 155
-185 23 -25 53 -62 67 -81 15 -19 53 -63 86 -97 l58 -63 290 0 289 0 159 15
c170 17 353 56 454 99 34 14 69 26 78 26 10 0 73 27 141 60 67 33 125 60 127
60 11 0 197 121 260 170 195 147 309 257 435 420 114 148 113 147 161 230 23
41 48 82 55 90 6 8 26 49 44 90 18 41 46 102 62 135 33 71 54 133 78 235 10
41 26 102 35 135 26 94 35 167 46 350 l10 170 -11 157 c-6 87 -19 195 -29 240
-43 197 -98 385 -134 463 -13 28 -36 77 -52 110 -53 116 -227 403 -254 420 -6
4 -25 26 -41 48 -60 83 -269 279 -427 402 -53 41 -251 164 -264 165 -5 0 -50
21 -100 46 -94 47 -221 95 -315 119 -29 7 -71 20 -95 29 -24 8 -106 25 -183
38 l-140 22 -1390 6 -1390 7 -80 15 c-137 26 -247 59 -320 95 -38 19 -90 45
-115 57 -94 45 -266 195 -355 311 -51 67 -146 237 -170 305 -13 36 -36 117
-51 180 l-26 115 -5 110 -5 110 16 80 c40 201 87 357 119 394 8 9 26 39 41 66
14 28 43 75 66 105 22 30 49 72 61 94 l21 38 -12 12 -11 11 -572 3 -572 3 -21
-15z"/>
</g>
<clipPath id="b0"><rect x="-300" y="-1.00" width="2836" height="321.43"/></clipPath><clipPath id="b1"><rect x="-300" y="318.43" width="2836" height="321.43"/></clipPath><clipPath id="b2"><rect x="-300" y="637.86" width="2836" height="321.43"/></clipPath><clipPath id="b3"><rect x="-300" y="957.29" width="2836" height="321.43"/></clipPath><clipPath id="b4"><rect x="-300" y="1276.71" width="2836" height="321.43"/></clipPath><clipPath id="b5"><rect x="-300" y="1596.14" width="2836" height="321.43"/></clipPath><clipPath id="b6"><rect x="-300" y="1915.57" width="2836" height="321.43"/></clipPath>
<pattern id="scan" width="6" height="9" patternUnits="userSpaceOnUse">
  <rect width="6" height="3" fill="#000" opacity="0.16"/>
</pattern>
</defs>

<rect width="2236" height="2236" fill="#1B1B1B"/>

<g style="animation:jolt 3.4s linear infinite">
  <g style="animation:chromaC 3.4s linear infinite"><use href="#rs" fill="#16e8ff"/></g>
  <g style="animation:chromaR 3.4s linear infinite"><use href="#rs" fill="#ff2740"/></g>
  <g style="animation:band0 3.4s linear infinite"><use href="#rs" fill="#B01927" clip-path="url(#b0)"/></g>
  <g style="animation:band1 3.4s linear infinite"><use href="#rs" fill="#B01927" clip-path="url(#b1)"/></g>
  <g style="animation:band2 3.4s linear infinite"><use href="#rs" fill="#B01927" clip-path="url(#b2)"/></g>
  <g style="animation:band3 3.4s linear infinite"><use href="#rs" fill="#B01927" clip-path="url(#b3)"/></g>
  <g style="animation:band4 3.4s linear infinite"><use href="#rs" fill="#B01927" clip-path="url(#b4)"/></g>
  <g style="animation:band5 3.4s linear infinite"><use href="#rs" fill="#B01927" clip-path="url(#b5)"/></g>
  <g style="animation:band6 3.4s linear infinite"><use href="#rs" fill="#B01927" clip-path="url(#b6)"/></g>
</g>

<rect width="2236" height="2236" fill="url(#scan)"/>
<rect width="2236" height="2236" fill="#ff5566" style="animation:flash 3.4s linear infinite" opacity="0"/>
</svg>
